<?xml version="1.0" encoding="UTF-8"?>
<!-- Vault Boy STATS figure, extracted from "Pip-Boy" by fluffgar (DeviantArt
     d34hiul). White-on-transparent so the app mask-tints it to the theme color.
     Used with attribution; credited in-app and in the README. -->
<svg xmlns="http://www.w3.org/2000/svg" viewBox="295 488 375 520">
  <g transform="matrix(0.85247596,0,0,0.85247596,70.811539,108.04103)">
    <path fill="#ffffff" d="m 554.67868,959.22685 c -5.27963,-0.44704 -13.21931,-3.93397 -17.87207,-7.84901 -1.81133,-1.52413 -4.33524,-5.06233 -5.60869,-7.86267 -1.27345,-2.80034 -4.30453,-7.11652 -6.73575,-9.59152 -4.62176,-4.70501 -17.0856,-22.8242 -20.09127,-29.20752 -0.96016,-2.03914 -2.17166,-3.97075 -2.69222,-4.29248 -0.52056,-0.32173 -1.73145,-2.25334 -2.69086,-4.29248 -0.95941,-2.03914 -2.81649,-5.28252 -4.12686,-7.20752 -1.31036,-1.925 -2.77131,-4.4 -3.24656,-5.5 -2.47354,-5.72524 -16.71346,-28.0261 -18.06146,-28.2857 -1.67535,-0.32264 -15.85498,15.60819 -19.2888,21.67098 -0.50299,0.8881 -1.23901,1.83972 -1.63559,2.11472 -0.65558,0.4546 -4.5352,6.75331 -8.9419,14.51751 -0.94195,1.65963 -2.70862,5.93463 -3.92594,9.5 -1.21731,3.56537 -2.56434,7.38249 -2.99339,8.48249 -0.42905,1.1 -2.67249,7.85 -4.98543,15 -4.86397,15.03604 -7.45478,20.71769 -11.51389,25.25 -3.39769,3.79379 -6.21012,4.10218 -14.26245,1.5639 -4.09108,-1.2896 -5.80871,-2.46538 -7.30417,-5 -1.39566,-2.36546 -2.6804,-3.3139 -4.48897,-3.3139 -1.39355,0 -2.53373,-0.45 -2.53373,-1 0,-0.55 -1.61824,-1 -3.59609,-1 -6.18025,0 -13.92801,-2.89282 -22.99702,-8.58652 -9.89897,-6.21476 -11.60998,-7.97007 -10.88183,-11.16348 0.28218,-1.2375 0.0545,-2.25 -0.50601,-2.25 -1.46773,0 -1.25562,-3.55877 0.28848,-4.84027 1.73812,-1.4425 21.6861,-1.40991 23.43107,0.0383 2.55329,2.11904 4.98379,-4.03681 13.30491,-33.69802 5.2984,-18.8865 6.95463,-23.95101 11.93645,-36.5 3.90078,-9.82589 6.85818,-16.9385 11.01863,-26.5 0.95728,-2.2 2.07426,-5.125 2.48219,-6.5 0.40793,-1.375 1.35425,-3.85 2.10294,-5.5 6.83775,-15.0693 9.62574,-29.26048 6.81596,-34.694 -0.78041,-1.50916 -1.39968,-5.59628 -1.39968,-9.23779 0,-7.5448 -1.40242,-17.10224 -4.48546,-30.56822 -1.91208,-8.35153 -2.45127,-9.54046 -4.46012,-9.83466 -1.2568,-0.18407 -2.77319,0.15343 -3.36976,0.75 -1.41791,1.41791 -36.31156,1.49736 -37.18466,0.0847 -0.33992,-0.55 -2.13992,-1 -4,-1 -1.86008,0 -3.66008,-0.45 -4,-1 -0.33992,-0.55 -1.63226,-1 -2.87186,-1 -4.60452,0 -22.31986,-10.17641 -30.46445,-17.5 -4.17538,-3.7545 -6.12591,-4.4739 -8.66369,-3.19535 -1.1,0.55418 -2.78139,1.38735 -3.73643,1.85148 -0.95504,0.46413 -3.76754,0.84387 -6.25,0.84387 -2.48246,0 -4.51357,0.45 -4.51357,1 0,0.58669 -3.20314,0.97095 -7.75,0.92971 -5.25892,-0.0477 -7.10714,-0.34653 -5.75,-0.92971 1.69005,-0.72624 1.50924,-0.87032 -1.16667,-0.92971 -1.74166,-0.0387 -3.37037,0.49221 -3.61934,1.17971 -0.36215,1 -0.8761,1 -2.56977,0 -1.16439,-0.6875 -3.00201,-1.25 -4.0836,-1.25 -4.5717,0 -6.58922,-2.00746 -8.65924,-8.61609 l -2.03393,-6.4934 2.31628,-3.13954 c 1.27395,-1.72678 2.31627,-4.55829 2.31627,-6.29228 0,-5.07369 2.83545,-7.45873 8.8673,-7.45873 2.82298,0 5.1327,-0.45 5.1327,-1 0,-0.55 2.03912,-1 4.53138,-1 5.33365,0 6.32667,-1.44004 4.04097,-5.86008 -1.76125,-3.4059 -2.21283,-16.13992 -0.57235,-16.13992 0.55,0 1,-0.9 1,-2 0,-1.5224 0.6567,-1.99286 2.75,-1.97009 2.94991,0.0321 4.94855,2.00452 10.50024,10.36261 3.77912,5.68948 10.08953,9.60043 15.5266,9.62279 2.79142,0.0115 3.34778,0.26105 2.22316,0.99725 -0.99905,0.65399 8.11041,0.96534 27.27662,0.93226 17.85528,-0.0308 28.55435,-0.4093 28.19098,-0.99725 -0.33154,-0.53644 1.14988,-0.94757 3.41437,-0.94757 2.2,0 4.27811,-0.45 4.61803,-1 0.33992,-0.55 2.61648,-1 5.05902,-1 2.44254,0 4.44098,-0.45 4.44098,-1 0,-0.55 1.99844,-1 4.44098,-1 2.44254,0 4.7191,-0.45 5.05902,-1 0.33992,-0.55 2.13992,-1 4,-1 1.86008,0 3.66008,-0.45 4,-1 0.33992,-0.55 1.91492,-1 3.5,-1 1.58508,0 3.16008,-0.45 3.5,-1 0.33992,-0.55 1.40176,-1 2.35965,-1 2.26136,0 7.12249,-2.2626 7.13255,-3.31982 0.004,-0.45091 -1.2598,-2.70091 -2.80909,-5 -5.02228,-7.45293 -7.49471,-14.78113 -10.14629,-30.07329 -1.40917,-8.127 0.37738,-22.69429 4.22676,-34.46451 2.74884,-8.40508 2.93224,-9.71194 1.80171,-12.83837 -1.58493,-4.38303 -1.70199,-14.24581 -0.20235,-17.04791 0.62538,-1.16854 1.13706,-5.91006 1.13706,-10.53672 0,-8.24089 1.80658,-14.71938 4.10463,-14.71938 0.52698,0 1.25038,-0.7875 1.60756,-1.75 0.70989,-1.91298 5.29373,-6.24682 6.60924,-6.24878 0.45178,-6.7e-4 1.44471,0.62207 2.20651,1.38386 1.0997,1.09971 1.15118,2.00477 0.24984,4.3927 -0.93549,2.47838 -0.85242,3.29043 0.47206,4.61491 1.76004,1.76005 6.75016,2.20901 6.75016,0.60731 0,-0.55 0.66463,-1 1.47695,-1 0.81232,0 2.26341,-1.2375 3.22464,-2.75 2.45658,-3.86543 6.47236,-7.24734 8.60743,-7.24878 0.99496,-6.7e-4 1.60085,-0.33872 1.34643,-0.75122 -0.25442,-0.4125 2.9773,-0.84281 7.18159,-0.95626 l 7.64417,-0.20625 4.69432,-5.07913 c 3.97884,-4.305 5.08528,-4.98101 7.2594,-4.43534 1.41079,0.35409 2.56507,1.07716 2.56507,1.60682 0,0.52966 0.7038,0.25921 1.56401,-0.60099 1.41868,-1.41868 1.84586,-1.41826 4.59726,0.005 1.66828,0.86271 4.3861,3.10937 6.03958,4.99258 1.9356,2.20454 3.90755,3.42403 5.53672,3.42403 5.50951,0 10.48096,2.29011 11.80444,5.43774 0.70359,1.67335 1.10508,3.32426 0.8922,3.66871 -0.21288,0.34444 0.50234,1.43114 1.58937,2.41489 1.08703,0.98375 1.97642,2.32147 1.97642,2.97271 0,0.65124 2.1764,3.169 4.83645,5.59501 8.33774,7.60418 13.4569,20.28892 13.48359,33.41094 0.0224,11.00853 -2.91804,22.89794 -8.93512,36.12848 -1.95115,4.29025 -2.23885,6.16986 -1.76022,11.5 0.45615,5.0797 0.16397,7.31108 -1.44106,11.00563 -2.39435,5.51097 -7.65234,9.86543 -11.91302,9.86543 -2.19952,0 -3.52973,0.7465 -4.80886,2.6987 -0.97254,1.48429 -2.84731,3.77775 -4.16614,5.09659 -2.97155,2.97155 -2.50676,4.68266 1.29735,4.77616 3.06399,0.0753 7.56093,1.05351 10.90703,2.37255 3.97035,1.56513 8.03422,3.30675 9.73643,4.17267 0.95504,0.48583 2.41754,0.88333 3.25,0.88333 0.83246,0 1.51357,0.45 1.51357,1 0,0.55 1.59293,1 3.53984,1 3.08156,0 5.24527,0.84308 12.46016,4.85505 4.54621,2.528 6.21101,3.14495 8.48643,3.14495 1.38246,0 2.51357,0.45 2.51357,1 0,0.60039 4.01967,1 10.05902,1 6.45136,0 9.83736,0.35865 9.44098,1 -0.39638,0.64135 2.98962,1 9.44098,1 6.03935,0 10.05902,-0.39961 10.05902,-1 0,-0.5998 3.98986,-1 9.96958,-1 12.44466,0 14.58327,-1.04864 25.55648,-12.53124 6.61341,-6.92043 8.42305,-8.29483 10.28166,-7.80879 1.24059,0.32442 2.72804,1.47259 3.30544,2.55148 1.0687,1.99687 0.70433,12.05129 -0.61747,17.03855 l -0.72884,2.75 9.55756,0 c 5.29301,0 9.83332,0.4462 10.17559,1 0.33992,0.55 1.43638,1 2.43657,1 4.61822,0 5.93615,7.37768 2.05578,11.50814 -1.42383,1.5156 -3.44803,2.49186 -5.16666,2.49186 -3.59658,0 -3.82459,2.71119 -0.30236,3.59521 2.91715,0.73216 5.47721,3.94766 5.47545,6.8773 -0.002,2.82135 -4.06665,7.26127 -7.03082,7.67938 -2.27774,0.32128 -2.44502,0.71243 -2.17032,5.07484 0.4256,6.75895 -0.93974,8.77327 -5.94667,8.77327 -2.24326,0 -5.93993,-0.95657 -8.21482,-2.12572 -2.27488,-1.16914 -4.91754,-2.51914 -5.87258,-3 -0.95504,-0.48085 -2.61598,-0.87428 -3.69098,-0.87428 -1.07501,0 -2.23267,-0.45 -2.57259,-1 -0.80132,-1.29656 -5.19868,-1.29656 -6,0 -0.33992,0.55 -1.85338,1 -3.36324,1 -1.50986,0 -4.7878,1.29538 -7.28431,2.87862 -2.49651,1.58324 -6.29712,3.45084 -8.44578,4.15021 -2.14867,0.69937 -5.23846,1.84728 -6.8662,2.5509 -1.62774,0.70362 -3.31524,1.05947 -3.75,0.79077 -0.43476,-0.26869 -0.79047,-0.012 -0.79047,0.57048 0,0.58246 -0.68111,1.05902 -1.51357,1.05902 -0.83246,0 -2.29496,0.39476 -3.25,0.87724 -3.05364,1.5427 -8.80029,3.12276 -11.35743,3.12276 -1.36345,0 -2.9065,0.42105 -3.429,0.93566 -0.5225,0.51461 -4.43458,1.07711 -8.69351,1.25 -4.25894,0.17289 -7.74644,0.65184 -7.75,1.06434 -0.008,0.93725 -6.4269,0.99626 -7.35553,0.0676 -0.37531,-0.3753 -4.38781,-0.82468 -8.91667,-0.99862 -4.52886,-0.17393 -9.823,-0.80629 -11.76476,-1.40523 -1.94175,-0.59894 -4.86142,-0.93706 -6.48815,-0.75138 -2.57498,0.29393 -3.05376,0.85519 -3.7001,4.33761 -2.25455,12.14727 -4.29635,30.50692 -5.33812,48 -0.59501,9.99106 -0.5919,10.00886 3.48065,19.91538 2.2419,5.45345 4.07619,10.29586 4.07619,10.7609 0,0.46503 0.86134,2.75311 1.91409,5.08462 1.05274,2.3315 3.80165,9.1891 6.10868,15.2391 2.30702,6.05 4.89188,12.56803 5.74411,14.48452 0.85224,1.91648 1.89122,4.84148 2.30886,6.5 0.41763,1.65851 1.73806,6.16548 2.93429,10.01548 2.2972,7.39342 2.57211,8.46895 6.0067,23.5 2.54721,11.14754 3.35224,15.51971 4.97141,27 0.65936,4.675 1.89602,11.74993 2.74814,15.72206 1.85433,8.64397 1.27293,16.3794 -1.66372,22.13571 -3.27525,6.42003 -7.12438,8.20309 -16.07256,7.44543 z m 7.05513,-10.45434 c 4.84059,-2.72056 6.43263,-6.39626 5.46406,-12.61543 -0.40544,-2.60339 -0.76687,-6.19593 -0.80316,-7.98343 -0.0363,-1.7875 -0.37528,-3.25 -0.75332,-3.25 -0.37804,0 -0.97688,-2.5875 -1.33075,-5.75 -0.35387,-3.1625 -1.09744,-7.775 -1.65238,-10.25 -0.55495,-2.475 -1.65285,-7.65 -2.43979,-11.5 -0.78694,-3.85 -2.16444,-10.15 -3.0611,-14 -0.89667,-3.85 -1.74051,-7.675 -1.87521,-8.5 -0.1347,-0.825 -0.50744,-2.175 -0.8283,-3 -0.32087,-0.825 -2.01304,-6 -3.76038,-11.5 -1.74734,-5.5 -4.04049,-11.9076 -5.09589,-14.2391 -1.0554,-2.33151 -1.91891,-4.68197 -1.91891,-5.22325 0,-0.54128 -0.86813,-2.90869 -1.92918,-5.2609 -1.95994,-4.34493 -7.5283,-18.77494 -12.84108,-33.27675 -2.75139,-7.51021 -2.92467,-8.86299 -2.83028,-22.09577 0.0714,-10.01518 0.47931,-14.55232 1.40893,-15.67282 0.93015,-1.12115 1.12195,-3.26158 0.66347,-7.40423 -0.39147,-3.53723 -0.20002,-6.98057 0.4872,-8.76217 0.62266,-1.61425 1.29576,-6.33925 1.49579,-10.5 0.20002,-4.16076 0.96701,-9.3211 1.70442,-11.46744 1.48377,-4.31878 4.40755,-6.88187 5.62604,-4.93199 0.47486,0.75989 4.44612,1.19542 11.4099,1.25132 5.87484,0.0471 11.86356,0.53515 13.30826,1.08442 3.26781,1.24242 27.49653,1.32998 27.49653,0.0994 0,-0.49461 1.9125,-1.14055 4.25,-1.43541 6.98745,-0.88142 11.10626,-1.74029 13.75,-2.86722 1.375,-0.58611 3.4,-1.40864 4.5,-1.82785 4.37063,-1.66563 19.02029,-9.34195 19.33333,-10.13053 0.4447,-1.12022 20.71818,-1.08163 22.93024,0.0437 2.82931,1.43928 6.57586,2.94576 9.07835,3.65038 1.90861,0.53741 2.27866,0.31776 2,-1.18715 -0.29487,-1.59245 -3.72388,-3.66529 -13.84192,-8.36744 -0.825,-0.3834 -1.5,-1.54805 -1.5,-2.58811 0,-2.59607 5.76572,-2.99288 13.8883,-0.95581 3.43171,0.86064 7.48122,1.5648 8.99891,1.5648 6.48991,0 -0.95951,-6.83383 -7.57819,-6.95197 -1.48004,-0.0265 -2.9691,-0.49811 -3.30902,-1.04811 -0.33992,-0.55 -2.05398,-1.01431 -3.80902,-1.0318 -3.90599,-0.0389 -6.69098,-2.00414 -6.69098,-4.72145 0,-2.77644 1.74157,-3.24675 12.02277,-3.24675 4.87256,0 9.13731,-0.45 9.47723,-1 0.33992,-0.55 1.49148,-1 2.55902,-1 3.68318,0 1.93186,-2.00016 -1.80902,-2.06605 -15.5721,-0.27429 -21.88248,0.26074 -25.05716,2.12451 -4.00201,2.34947 -6.05576,2.46234 -6.85606,0.3768 -0.40127,-1.04569 1.318,-3.45062 5.18297,-7.25 3.18088,-3.12689 6.3902,-7.13331 7.13183,-8.90314 1.58446,-3.78117 1.77381,-8.28212 0.34842,-8.28212 -0.55,0 -1,0.3377 -1,0.75044 0,1.04304 -6.77958,8.17025 -11,11.56403 -1.925,1.54796 -4.7375,3.06671 -6.25,3.375 -1.5125,0.30829 -2.75,0.95428 -2.75,1.43553 0,0.48125 -2.25,0.875 -5,0.875 -2.75,0 -5,0.45 -5,1 0,0.62485 -5.98033,1 -15.94098,1 -9.54864,0 -16.18882,-0.401 -16.55902,-1 -0.33992,-0.55 -3.51648,-1 -7.05902,-1 -3.62732,0 -6.44098,-0.43684 -6.44098,-1 0,-0.55 -1.35,-1 -3,-1 -1.65,0 -3,-0.45 -3,-1 0,-0.55 -1.35,-1 -3,-1 -1.65,0 -3,-0.45 -3,-1 0,-0.55 -0.98055,-1 -2.179,-1 -3.61568,0 -14.821,-3.96478 -14.821,-5.24411 0,-0.41574 -1.26548,-0.75589 -2.81217,-0.75589 -1.54669,0 -4.67496,-0.9 -6.95169,-2 -2.27674,-1.1 -4.59923,-2 -5.16108,-2 -0.91698,0 -7.78023,-2.85982 -12.31149,-5.13003 -0.95504,-0.47848 -3.06598,-0.86997 -4.69098,-0.86997 -1.62501,0 -3.23267,-0.45 -3.57259,-1 -0.33992,-0.55 -1.49148,-1 -2.55902,-1 -2.7666,0 -2.43744,-2.7388 0.94122,-7.83136 4.50135,-6.78477 9.45809,-11.01741 12.27224,-10.47945 2.40992,0.46069 5.2546,-1.69637 10.59556,-8.03437 2.49698,-2.96311 3.00533,-8.15099 0.87868,-8.96707 -3.16783,-1.21561 -2.72295,-5.44867 1.44038,-13.70538 12.95921,-25.70067 11.77674,-48.36196 -3.36468,-64.48237 -1.0332,-1.1 -2.8039,-3.8 -3.9349,-6 -2.45764,-4.7806 -4.91199,-7.10361 -10.26948,-9.71996 -8.3973,-4.10086 -10.45135,-5.39143 -14.3721,-9.03004 -2.22243,-2.0625 -4.55483,-3.75 -5.18313,-3.75 -1.27151,0 -5.84489,4.65409 -9.82656,10 -1.43376,1.925 -2.97995,3.77199 -3.43599,4.10442 -1.21363,0.8847 -5.76166,0.21614 -7.00797,-1.03017 -3.05818,-3.05818 -9.13687,-0.50085 -17.04483,7.17082 -2.12882,2.06521 -4.49132,3.75493 -5.25,3.75493 -0.75868,0 -1.37942,0.45 -1.37942,1 0,0.55 -1.60522,1 -3.56715,1 -2.81295,0 -4.29913,-0.77612 -7.02918,-3.67082 -3.8308,-4.06183 -4.42586,-3.83661 -6.38892,2.41801 -1.04651,3.33435 -1.08388,5.0787 -0.17388,8.11602 1.62673,5.42954 1.46063,7.53917 -0.92851,11.79282 -2.17009,3.86366 -2.15665,5.08424 0.16343,14.84397 1.05225,4.42642 0.93492,5.80301 -1.02277,12 -1.21625,3.85 -2.69838,9.7 -3.29363,13 -1.61956,8.97879 -0.76566,28.73743 1.33756,30.95 0.49668,0.5225 0.90305,1.95844 0.90305,3.19098 0,1.23254 0.45,2.5191 1,2.85902 0.55,0.33992 1.01001,1.37898 1.02224,2.30902 0.0122,0.93004 0.90222,2.81598 1.97776,4.19098 1.07554,1.375 1.96553,3.25 1.97776,4.16667 0.0122,0.91666 0.39139,1.81666 0.84257,2 1.56178,0.63461 6.02376,8.07606 5.56279,9.27732 -0.58805,1.53244 -7.36992,4.55601 -10.21914,4.55601 -1.19019,0 -2.16398,0.45 -2.16398,1 0,0.55 -1.8,1 -4,1 -2.2,0 -4,0.45 -4,1 0,0.55 -1.8,1 -4,1 -2.2,0 -4,0.45 -4,1 0,0.55 -2.025,1 -4.5,1 -2.475,0 -4.5,0.45 -4.5,1 0,0.55 -2.025,1 -4.5,1 -2.475,0 -4.5,0.39148 -4.5,0.86995 0,0.47847 -1.9125,1.13342 -4.25,1.45545 -2.3375,0.32202 -7.625,1.07293 -11.75,1.66868 -9.15471,1.32216 -48.6625,0.55249 -57.39011,-1.11805 -7.97843,-1.52714 -16.60989,-5.85383 -16.60989,-8.32604 0,-1.53139 -5.35139,-8.45086 -6.15272,-7.95561 -2.42764,1.50037 1.92622,12.36038 7.1785,17.90562 3.61239,3.81389 4.38435,8.86979 1.41905,9.29402 -1.13035,0.16171 -2.8876,-0.62579 -3.90499,-1.75 -1.0174,-1.12421 -2.90507,-2.04402 -4.19483,-2.04402 -2.49205,0 -3.09192,1.85309 -1.2093,3.73571 1.5021,1.5021 -1.16758,4.26429 -4.12146,4.26429 -4.68786,0 -19.01425,3.88788 -19.01425,5.16006 0,2.15093 14.69332,-0.0961 16.18496,-2.47517 0.87205,-1.39085 5.81504,1.08348 5.81504,2.91085 0,1.32736 -5.35645,4.40426 -7.66721,4.40426 -0.74796,0 -2.14132,0.41246 -3.09636,0.91659 -0.95504,0.50412 -3.19893,1.45871 -4.98643,2.12132 -9.02385,3.34502 0.95541,5.22927 19.75,3.72911 4.60849,-0.36784 8.23798,-1.42793 12.47243,-3.64292 3.28483,-1.71825 6.65983,-3.10202 7.5,-3.07504 0.84016,0.027 3.32757,1.82378 5.52757,3.99288 2.2,2.1691 4.35572,3.94702 4.79049,3.95094 0.84401,0.008 6.00936,3.51871 8.85486,6.01902 0.94635,0.83154 3.77578,2.11871 6.28764,2.86038 2.51186,0.74166 4.56701,1.7488 4.56701,2.2381 0,0.48929 0.90611,0.88962 2.01357,0.88962 1.10746,0 2.90746,0.45 4,1 1.09254,0.55 2.88032,1.45 3.97286,2 1.09254,0.55 2.89254,1 4,1 1.10746,0 2.01357,0.45 2.01357,1 0,0.62612 6.14699,1 16.44098,1 9.88197,0 16.68755,-0.39894 17.05902,-1 0.33992,-0.55 1.91492,-1 3.5,-1 1.58508,0 3.16008,-0.45 3.5,-1 0.87323,-1.41292 5.0715,-1.24356 6.19743,0.25 0.89259,1.18404 2.16505,5.21194 4.50174,14.25 0.56878,2.2 1.43166,5.30465 1.91749,6.89922 0.48584,1.59458 0.88334,4.83493 0.88334,7.20078 0,2.36586 0.44372,6.46121 0.98604,9.10078 0.54232,2.63957 1.23,8.62422 1.52818,13.29922 0.29818,4.675 0.80127,12.49211 1.11799,17.37136 0.33811,5.20881 0.15732,9.75018 -0.43789,11 -0.55755,1.17075 -3.56205,8.65364 -6.67665,16.62864 -5.0882,13.02844 -8.1661,20.65123 -14.73781,36.5 -1.14029,2.75 -2.62851,6.35 -3.30715,8 -0.67864,1.65 -2.47392,6.825 -3.98951,11.5 -1.51559,4.675 -3.11549,9.4 -3.55534,10.5 -0.43985,1.1 -1.7952,5.375 -3.01188,9.5 -3.49241,11.84051 -8.55884,27.25089 -9.91737,30.16525 -1.57005,3.36811 -2.88476,3.67385 -11.49861,2.67401 -3.85,-0.44688 -8.11096,-0.93103 -9.46879,-1.07589 -3.64169,-0.3885 -3.66184,2.43289 -0.0327,4.57669 1.6806,0.99275 4.14799,2.89736 5.4831,4.23247 1.33511,1.33511 3.0384,2.42747 3.7851,2.42747 0.74669,0 3.22041,0.9 5.49714,2 2.27674,1.1 4.83627,2 5.68783,2 0.85157,0 1.54831,0.45 1.54831,1 0,0.55 1.35,1 3,1 1.65,0 3,0.45 3,1 0,0.55 1.74825,1 3.88499,1 2.91828,0 4.25781,0.55987 5.38327,2.25 0.82406,1.2375 3.23831,3.14569 5.36501,4.24043 2.1267,1.09473 4.13393,2.35754 4.4605,2.80623 1.08671,1.49308 7.5065,-6.0526 8.89671,-10.45701 0.75338,-2.38681 1.67372,-4.78965 2.04521,-5.33965 0.3715,-0.55 0.92186,-1.9 1.22304,-3 0.64834,-2.36795 7.37426,-21.61725 11.57045,-33.11412 4.19485,-11.49318 12.96702,-27.38588 15.11599,-27.38588 0.50603,0 1.18875,-0.84655 1.51714,-1.88122 0.32839,-1.03467 1.53474,-2.94717 2.68077,-4.25 1.14603,-1.30283 3.27017,-3.94378 4.72031,-5.86878 1.45014,-1.925 4.16863,-5.1845 6.04108,-7.24333 1.87245,-2.05883 3.90872,-4.75883 4.52503,-6 1.95418,-3.93543 4.86235,-3.36071 7.34976,1.45249 1.21961,2.35996 3.97437,6.99084 6.12169,10.29084 2.14732,3.3 4.76602,7.575 5.81933,9.5 1.05331,1.925 4.30723,7.325 7.23092,12 2.9237,4.675 6.11439,9.90258 7.09044,11.61685 0.97604,1.71426 3.67191,6.21426 5.99082,10 2.3189,3.78573 4.99394,8.23315 5.94453,9.88315 1.58301,2.74776 6.20265,10.18966 9.27143,14.93561 0.68838,1.06459 2.93357,3.80892 4.98933,6.09853 2.05575,2.2896 4.37854,5.69358 5.16174,7.56439 2.54701,6.08396 9.39268,11.90147 14.00489,11.90147 1.4276,0 2.59563,0.45 2.59563,1 0,1.76671 6.1076,1.0675 10.05513,-1.15114 z" />
  </g>
</svg>
